<svg width="45" height="45" viewBox="0 0 45 45" fill="none" xmlns="http://www.w3.org/2000/svg">
<circle cx="22.5" cy="22.5" r="22.5" fill="#DF2C2C"/>
<path d="M15 18.2H16.5556M16.5556 18.2H29M16.5556 18.2V29.4C16.5556 29.8243 16.7194 30.2313 17.0112 30.5314C17.3029 30.8314 17.6986 31 18.1111 31H25.8889C26.3014 31 26.6971 30.8314 26.9888 30.5314C27.2806 30.2313 27.4444 29.8243 27.4444 29.4V18.2H16.5556ZM18.8889 18.2V16.6C18.8889 16.1757 19.0528 15.7687 19.3445 15.4686C19.6362 15.1686 20.0319 15 20.4444 15H23.5556C23.9681 15 24.3638 15.1686 24.6555 15.4686C24.9472 15.7687 25.1111 16.1757 25.1111 16.6V18.2M20.4444 22.2V27M23.5556 22.2V27" stroke="white" stroke-width="2" stroke-linecap="round" stroke-linejoin="round"/>
</svg>
